<svg width="44" height="44" viewBox="0 0 44 44" fill="none" xmlns="http://www.w3.org/2000/svg">
<path d="M19.2151 36.369L4.12898 11.184C3.81794 10.6453 3.65337 10.0346 3.65163 9.41262C3.64988 8.79062 3.81104 8.179 4.11906 7.63861C4.42708 7.09823 4.87122 6.64791 5.40731 6.33247C5.94339 6.01703 6.55273 5.84745 7.1747 5.84062H37.3468C37.9688 5.84745 38.5781 6.01703 39.1142 6.33247C39.6503 6.64791 40.0945 7.09823 40.4025 7.63861C40.7105 8.179 40.8716 8.79062 40.8699 9.41262C40.8682 10.0346 40.7036 10.6453 40.3925 11.184L25.3065 36.369C24.989 36.8924 24.5419 37.3252 24.0084 37.6256C23.4749 37.9259 22.873 38.0837 22.2608 38.0837C21.6485 38.0837 21.0466 37.9259 20.5131 37.6256C19.9796 37.3252 19.5326 36.8924 19.2151 36.369Z" fill="#0DB0A5" stroke="#101828" stroke-width="3.56224" stroke-linecap="round" stroke-linejoin="round"/>
</svg>
