<svg width="44" height="43" viewBox="0 0 44 43" fill="none" xmlns="http://www.w3.org/2000/svg">
<path d="M25.3072 6.99723L40.3932 32.1822C40.7043 32.7209 40.8688 33.3316 40.8706 33.9536C40.8723 34.5756 40.7112 35.1872 40.4032 35.7276C40.0951 36.268 39.651 36.7183 39.1149 37.0337C38.5788 37.3492 37.9695 37.5188 37.3475 37.5256L7.17538 37.5256C6.55342 37.5188 5.94408 37.3492 5.40799 37.0337C4.87191 36.7183 4.42776 36.268 4.11974 35.7276C3.81173 35.1872 3.65057 34.5756 3.65231 33.9536C3.65405 33.3316 3.81863 32.7209 4.12967 32.1822L19.2157 6.99723C19.5333 6.47377 19.9803 6.04098 20.5138 5.74062C21.0473 5.44026 21.6492 5.28247 22.2615 5.28247C22.8737 5.28247 23.4756 5.44026 24.0091 5.74062C24.5426 6.04098 24.9896 6.47377 25.3072 6.99723Z" fill="#0FA197" stroke="#101828" stroke-width="3.56224" stroke-linecap="round" stroke-linejoin="round"/>
</svg>
