<svg width="39" height="39" viewBox="0 0 39 39" fill="none" xmlns="http://www.w3.org/2000/svg">
<path d="M35.657 29.8361C35.657 30.4127 35.5289 31.0052 35.2566 31.5817C34.9844 32.1583 34.6321 32.7028 34.1676 33.2152C33.3829 34.08 32.5181 34.7046 31.5412 35.105C30.5804 35.5053 29.5394 35.7135 28.4184 35.7135C26.7849 35.7135 25.0393 35.3292 23.1976 34.5444C21.3559 33.7597 19.5143 32.7028 17.6886 31.3735C15.8469 30.0283 14.1013 28.539 12.4358 26.8894C10.7863 25.2239 9.29692 23.4783 7.9677 21.6527C6.6545 19.827 5.59754 18.0013 4.82883 16.1917C4.06013 14.366 3.67578 12.6204 3.67578 10.9549C3.67578 9.8659 3.86796 8.82495 4.25231 7.86407C4.63666 6.88718 5.24522 5.99036 6.09399 5.18963C7.11893 4.1807 8.23995 3.68425 9.42503 3.68425C9.87344 3.68425 10.3219 3.78034 10.7222 3.97251C11.1386 4.16469 11.5069 4.45295 11.7952 4.86933L15.5106 10.1061C15.7989 10.5065 16.007 10.8748 16.1512 11.2271C16.2953 11.5634 16.3754 11.8998 16.3754 12.204C16.3754 12.5884 16.2633 12.9727 16.0391 13.3411C15.8309 13.7094 15.5266 14.0938 15.1423 14.4781L13.9251 15.7433C13.749 15.9194 13.6689 16.1276 13.6689 16.3839C13.6689 16.512 13.6849 16.6241 13.717 16.7522C13.765 16.8803 13.813 16.9764 13.8451 17.0725C14.1333 17.601 14.6298 18.2896 15.3344 19.1224C16.0551 19.9551 16.8238 20.8039 17.6566 21.6527C18.5213 22.5014 19.3541 23.2862 20.2029 24.0068C21.0356 24.7115 21.7243 25.1919 22.2688 25.4802C22.3488 25.5122 22.4449 25.5602 22.557 25.6083C22.6851 25.6563 22.8133 25.6723 22.9574 25.6723C23.2296 25.6723 23.4378 25.5763 23.614 25.4001L24.8311 24.199C25.2315 23.7986 25.6158 23.4943 25.9842 23.3022C26.3525 23.078 26.7208 22.9659 27.1212 22.9659C27.4255 22.9659 27.7458 23.0299 28.0981 23.1741C28.4504 23.3182 28.8188 23.5264 29.2191 23.7986L34.52 27.5621C34.9363 27.8503 35.2246 28.1866 35.4008 28.587C35.5609 28.9874 35.657 29.3877 35.657 29.8361Z" stroke="#474F59" stroke-width="1.80165" stroke-miterlimit="10"/>
</svg>
