<svg width="39" height="39" viewBox="0 0 39 39" fill="none" xmlns="http://www.w3.org/2000/svg">
<path d="M11.6363 19.6989C5.23047 19.6989 5.23047 22.5655 5.23047 26.1047V27.7062C5.23047 32.1262 5.23047 35.7135 13.2378 35.7135H26.0495C32.4553 35.7135 34.0568 32.1262 34.0568 27.7062V26.1047C34.0568 22.5655 34.0568 19.6989 27.651 19.6989C26.0495 19.6989 25.6011 20.0352 24.7683 20.6597L23.1348 22.3893C21.2451 24.4072 18.0422 24.4072 16.1364 22.3893L14.519 20.6597C13.6862 20.0352 13.2378 19.6989 11.6363 19.6989Z" stroke="#474F59" stroke-width="1.80165" stroke-miterlimit="10" stroke-linecap="round" stroke-linejoin="round"/>
<path d="M30.8541 19.6989V10.0901C30.8541 6.55087 30.8541 3.68425 24.4482 3.68425H14.8394C8.43359 3.68425 8.43359 6.55087 8.43359 10.0901V19.6989" stroke="#474F59" stroke-width="1.80165" stroke-miterlimit="10" stroke-linecap="round" stroke-linejoin="round"/>
</svg>
