<svg width="39" height="39" viewBox="0 0 39 39" fill="none" xmlns="http://www.w3.org/2000/svg">
<path d="M35.7578 19.6988C35.7578 10.8588 28.5832 3.6842 19.7431 3.6842C10.9031 3.6842 3.72852 10.8588 3.72852 19.6988C3.72852 28.5389 10.9031 35.7135 19.7431 35.7135" stroke="#474F59" stroke-width="2.40219" stroke-linecap="round" stroke-linejoin="round"/>
<path d="M13.3364 5.28566H14.9378C11.815 14.6382 11.815 24.7595 14.9378 34.112H13.3364" stroke="#474F59" stroke-width="2.40219" stroke-linecap="round" stroke-linejoin="round"/>
<path d="M24.5488 5.28566C26.1022 9.96193 26.887 14.8304 26.887 19.6988" stroke="#474F59" stroke-width="2.40219" stroke-linecap="round" stroke-linejoin="round"/>
<path d="M5.33203 26.1047V24.5032C10.0083 26.0566 14.8768 26.8414 19.7452 26.8414" stroke="#474F59" stroke-width="2.40219" stroke-linecap="round" stroke-linejoin="round"/>
<path d="M5.33203 14.8944C14.6846 11.7715 24.8058 11.7715 34.1584 14.8944" stroke="#474F59" stroke-width="2.40219" stroke-linecap="round" stroke-linejoin="round"/>
<path d="M29.6696 34.7527C32.4999 34.7527 34.7943 32.4582 34.7943 29.628C34.7943 26.7977 32.4999 24.5033 29.6696 24.5033C26.8393 24.5033 24.5449 26.7977 24.5449 29.628C24.5449 32.4582 26.8393 34.7527 29.6696 34.7527Z" stroke="#474F59" stroke-width="2.40219" stroke-linecap="round" stroke-linejoin="round"/>
<path d="M35.7558 35.7135L34.1543 34.112" stroke="#474F59" stroke-width="2.40219" stroke-linecap="round" stroke-linejoin="round"/>
</svg>
