<svg width="43" height="47" viewBox="0 0 43 47" fill="none" xmlns="http://www.w3.org/2000/svg">
<g id="triangle" clip-path="url(#clip0_6_13879)">
<path id="Icon" d="M6.8807 26.5L31.5844 42.6035C32.1128 42.9356 32.713 43.1135 33.3254 43.1194C33.9378 43.1254 34.541 42.9591 35.0749 42.6372C35.6088 42.3153 36.0548 41.849 36.3687 41.2847C36.6825 40.7204 36.8532 40.0778 36.8637 39.4207L37.048 7.54369C37.045 6.88653 36.8818 6.24165 36.5745 5.67321C36.2672 5.10477 35.8266 4.63257 35.2964 4.30361C34.7663 3.97464 34.1651 3.80037 33.5527 3.79814C32.9403 3.7959 32.338 3.96578 31.8058 4.29087L6.9179 20.0644C6.40059 20.3964 5.97176 20.8659 5.67278 21.4276C5.37381 21.9892 5.21478 22.6241 5.21104 23.2709C5.2073 23.9178 5.35898 24.5547 5.65144 25.1203C5.9439 25.6859 6.36727 26.1611 6.8807 26.5Z" fill="#0DB0A5" stroke="#101828" stroke-width="3.50725" stroke-linecap="round" stroke-linejoin="round"/>
</g>
<defs>
<clipPath id="clip0_6_13879">
<rect width="45.163" height="42.0871" fill="white" transform="matrix(0.00577939 -0.999983 0.999978 0.00665506 0 45.8182)"/>
</clipPath>
</defs>
</svg>
