<svg width="37" height="41" viewBox="0 0 37 41" fill="none" xmlns="http://www.w3.org/2000/svg">
<path d="M3.9716 17.5634L29.1566 2.47737C29.6953 2.16633 30.306 2.00176 30.928 2.00001C31.55 1.99827 32.1616 2.15943 32.702 2.46745C33.2423 2.77547 33.6927 3.21961 34.0081 3.7557C34.3235 4.29178 34.4931 4.90112 34.5 5.52308V35.6952C34.4931 36.3172 34.3235 36.9265 34.0081 37.4626C33.6927 37.9987 33.2423 38.4428 32.702 38.7509C32.1616 39.0589 31.55 39.22 30.928 39.2183C30.306 39.2166 29.6953 39.052 29.1566 38.7409L3.9716 23.6549C3.44814 23.3373 3.01535 22.8903 2.71499 22.3568C2.41463 21.8233 2.25684 21.2214 2.25684 20.6092C2.25684 19.9969 2.41463 19.395 2.71499 18.8615C3.01535 18.328 3.44814 17.881 3.9716 17.5634Z" fill="#0FA197" stroke="#101828" stroke-width="3.56224" stroke-linecap="round" stroke-linejoin="round"/>
</svg>
