<svg width="37" height="41" viewBox="0 0 37 41" fill="none" xmlns="http://www.w3.org/2000/svg">
<path d="M33.0284 23.6549L7.8434 38.7409C7.30475 39.052 6.69404 39.2166 6.07204 39.2183C5.45004 39.2201 4.83842 39.0589 4.29804 38.7509C3.75765 38.4429 3.30734 37.9987 2.9919 37.4626C2.67646 36.9265 2.50688 36.3172 2.50004 35.6952L2.50004 5.5231C2.50688 4.90113 2.67646 4.2918 2.9919 3.75571C3.30734 3.21963 3.75765 2.77548 4.29804 2.46746C4.83842 2.15944 5.45004 1.99829 6.07204 2.00003C6.69404 2.00177 7.30475 2.16635 7.8434 2.47739L33.0284 17.5635C33.5519 17.881 33.9847 18.3281 34.285 18.8615C34.5854 19.395 34.7432 19.9969 34.7432 20.6092C34.7432 21.2214 34.5854 21.8233 34.285 22.3568C33.9847 22.8903 33.5519 23.3374 33.0284 23.6549Z" fill="#0FA197" stroke="#101828" stroke-width="3.56224" stroke-linecap="round" stroke-linejoin="round"/>
</svg>
