<svg width="43" height="47" viewBox="0 0 43 47" fill="none" xmlns="http://www.w3.org/2000/svg">
<g id="triangle" clip-path="url(#clip0_6_13883)">
<path id="Icon" d="M35.6652 26.5L10.9615 42.6035C10.4331 42.9356 9.83285 43.1135 9.22047 43.1194C8.60809 43.1254 8.00495 42.9591 7.47103 42.6372C6.93712 42.3153 6.49105 41.849 6.17721 41.2847C5.86337 40.7204 5.69269 40.0778 5.68217 39.4207L5.49793 7.54369C5.50087 6.88653 5.6641 6.24165 5.9714 5.67321C6.27869 5.10477 6.71933 4.63257 7.24948 4.30361C7.77964 3.97464 8.38082 3.80037 8.99322 3.79814C9.60562 3.7959 10.2079 3.96578 10.7401 4.29087L35.628 20.0644C36.1453 20.3964 36.5741 20.8659 36.8731 21.4276C37.1721 21.9892 37.3311 22.6241 37.3349 23.2709C37.3386 23.9178 37.1869 24.5547 36.8945 25.1203C36.602 25.6859 36.1786 26.1611 35.6652 26.5Z" fill="#0DB0A5" stroke="#101828" stroke-width="3.50725" stroke-linecap="round" stroke-linejoin="round"/>
</g>
<defs>
<clipPath id="clip0_6_13883">
<rect width="45.163" height="42.0871" fill="white" transform="matrix(-0.00577939 -0.999983 -0.999978 0.00665506 42.5459 45.8182)"/>
</clipPath>
</defs>
</svg>
